<?xml version="1.0" encoding="UTF-8" standalone="no"?>
<!DOCTYPE svg PUBLIC "-//W3C//DTD SVG 1.1//EN"
 "http://www.w3.org/Graphics/SVG/1.1/DTD/svg11.dtd">
<!-- Generated by graphviz version 5.0.0 (20220707.1540)
 -->
<!-- Title: dependencies Pages: 1 -->
<svg width="645pt" height="174pt"
 viewBox="0.00 0.00 645.00 173.80" xmlns="http://www.w3.org/2000/svg" xmlns:xlink="http://www.w3.org/1999/xlink">
<g id="graph0" class="graph" transform="scale(1 1) rotate(0) translate(4 169.8)">
<title>dependencies</title>
<polygon fill="white" stroke="transparent" points="-4,4 -4,-169.8 641,-169.8 641,4 -4,4"/>
<text text-anchor="middle" x="318.5" y="-8.2" font-family="sans-serif" font-size="14.00">dependencies</text>
<g id="clust1" class="cluster">
<title>cluster_PostsModule</title>
<polygon fill="none" stroke="black" stroke-dasharray="1,5" points="8,-32.8 8,-157.8 629,-157.8 629,-32.8 8,-32.8"/>
</g>
<g id="clust6" class="cluster">
<title>cluster_PostsModule_providers</title>
<polygon fill="none" stroke="black" points="138,-40.8 138,-92.8 621,-92.8 621,-40.8 138,-40.8"/>
</g>
<g id="clust3" class="cluster">
<title>cluster_PostsModule_imports</title>
<polygon fill="none" stroke="black" points="16,-40.8 16,-92.8 130,-92.8 130,-40.8 16,-40.8"/>
</g>
<!-- TopicsModule -->
<g id="node1" class="node">
<title>TopicsModule</title>
<polygon fill="#8dd3c7" stroke="black" points="121.66,-84.8 118.66,-88.8 97.66,-88.8 94.66,-84.8 24.34,-84.8 24.34,-48.8 121.66,-48.8 121.66,-84.8"/>
<text text-anchor="middle" x="73" y="-62.6" font-family="Times,serif" font-size="14.00">TopicsModule</text>
</g>
<!-- PostsModule -->
<g id="node2" class="node">
<title>PostsModule</title>
<polygon fill="#8dd3c7" stroke="black" points="321.62,-149.8 318.62,-153.8 297.62,-153.8 294.62,-149.8 232.38,-149.8 232.38,-113.8 321.62,-113.8 321.62,-149.8"/>
<text text-anchor="middle" x="277" y="-127.6" font-family="Times,serif" font-size="14.00">PostsModule</text>
</g>
<!-- TopicsModule&#45;&gt;PostsModule -->
<g id="edge1" class="edge">
<title>TopicsModule&#45;&gt;PostsModule</title>
<path fill="none" stroke="black" d="M73,-84.91C73,-104.14 73,-131.8 73,-131.8 73,-131.8 222.23,-131.8 222.23,-131.8"/>
<polygon fill="black" stroke="black" points="222.23,-135.3 232.23,-131.8 222.23,-128.3 222.23,-135.3"/>
</g>
<!-- IsPostExistValidator -->
<g id="node3" class="node">
<title>IsPostExistValidator</title>
<ellipse fill="#fdb462" stroke="black" cx="522" cy="-66.8" rx="90.94" ry="18"/>
<text text-anchor="middle" x="522" y="-62.6" font-family="Times,serif" font-size="14.00">IsPostExistValidator</text>
</g>
<!-- IsPostExistValidator&#45;&gt;PostsModule -->
<g id="edge2" class="edge">
<title>IsPostExistValidator&#45;&gt;PostsModule</title>
<path fill="none" stroke="black" d="M522,-84.91C522,-104.14 522,-131.8 522,-131.8 522,-131.8 331.65,-131.8 331.65,-131.8"/>
<polygon fill="black" stroke="black" points="331.65,-128.3 321.65,-131.8 331.65,-135.3 331.65,-128.3"/>
</g>
<!-- PostByIdPipe -->
<g id="node4" class="node">
<title>PostByIdPipe</title>
<ellipse fill="#fdb462" stroke="black" cx="349" cy="-66.8" rx="64.32" ry="18"/>
<text text-anchor="middle" x="349" y="-62.6" font-family="Times,serif" font-size="14.00">PostByIdPipe</text>
</g>
<!-- PostByIdPipe&#45;&gt;PostsModule -->
<g id="edge3" class="edge">
<title>PostByIdPipe&#45;&gt;PostsModule</title>
<path fill="none" stroke="black" d="M303.2,-79.64C303.2,-79.64 303.2,-103.32 303.2,-103.32"/>
<polygon fill="black" stroke="black" points="299.7,-103.32 303.2,-113.32 306.7,-103.32 299.7,-103.32"/>
</g>
<!-- PostsService -->
<g id="node5" class="node">
<title>PostsService</title>
<ellipse fill="#fdb462" stroke="black" cx="206" cy="-66.8" rx="60.28" ry="18"/>
<text text-anchor="middle" x="206" y="-62.6" font-family="Times,serif" font-size="14.00">PostsService</text>
</g>
<!-- PostsService&#45;&gt;PostsModule -->
<g id="edge4" class="edge">
<title>PostsService&#45;&gt;PostsModule</title>
<path fill="none" stroke="black" d="M249.41,-79.33C249.41,-79.33 249.41,-103.65 249.41,-103.65"/>
<polygon fill="black" stroke="black" points="245.91,-103.65 249.41,-113.65 252.91,-103.65 245.91,-103.65"/>
</g>
</g>
</svg>
