<?xml version="1.0" encoding="UTF-8" standalone="no"?>
<!DOCTYPE svg PUBLIC "-//W3C//DTD SVG 1.1//EN"
 "http://www.w3.org/Graphics/SVG/1.1/DTD/svg11.dtd">
<!-- Generated by graphviz version 5.0.0 (20220707.1540)
 -->
<!-- Title: dependencies Pages: 1 -->
<svg width="602pt" height="174pt"
 viewBox="0.00 0.00 602.00 173.80" xmlns="http://www.w3.org/2000/svg" xmlns:xlink="http://www.w3.org/1999/xlink">
<g id="graph0" class="graph" transform="scale(1 1) rotate(0) translate(4 169.8)">
<title>dependencies</title>
<polygon fill="white" stroke="transparent" points="-4,4 -4,-169.8 598,-169.8 598,4 -4,4"/>
<text text-anchor="middle" x="297" y="-8.2" font-family="sans-serif" font-size="14.00">dependencies</text>
<g id="clust1" class="cluster">
<title>cluster_ServicesModule</title>
<polygon fill="none" stroke="black" stroke-dasharray="1,5" points="8,-32.8 8,-157.8 586,-157.8 586,-32.8 8,-32.8"/>
</g>
<g id="clust3" class="cluster">
<title>cluster_ServicesModule_imports</title>
<polygon fill="none" stroke="black" points="16,-40.8 16,-92.8 578,-92.8 578,-40.8 16,-40.8"/>
</g>
<!-- AuthModule -->
<g id="node1" class="node">
<title>AuthModule</title>
<polygon fill="#8dd3c7" stroke="black" points="569.55,-84.8 566.55,-88.8 545.55,-88.8 542.55,-84.8 482.45,-84.8 482.45,-48.8 569.55,-48.8 569.55,-84.8"/>
<text text-anchor="middle" x="526" y="-62.6" font-family="Times,serif" font-size="14.00">AuthModule</text>
</g>
<!-- ServicesModule -->
<g id="node6" class="node">
<title>ServicesModule</title>
<polygon fill="#8dd3c7" stroke="black" points="357.48,-149.8 354.48,-153.8 333.48,-153.8 330.48,-149.8 250.52,-149.8 250.52,-113.8 357.48,-113.8 357.48,-149.8"/>
<text text-anchor="middle" x="304" y="-127.6" font-family="Times,serif" font-size="14.00">ServicesModule</text>
</g>
<!-- AuthModule&#45;&gt;ServicesModule -->
<g id="edge1" class="edge">
<title>AuthModule&#45;&gt;ServicesModule</title>
<path fill="none" stroke="black" d="M526,-85.08C526,-106.12 526,-137.8 526,-137.8 526,-137.8 367.74,-137.8 367.74,-137.8"/>
<polygon fill="black" stroke="black" points="367.74,-134.3 357.74,-137.8 367.74,-141.3 367.74,-134.3"/>
</g>
<!-- PostsModule -->
<g id="node2" class="node">
<title>PostsModule</title>
<polygon fill="#8dd3c7" stroke="black" points="464.62,-84.8 461.62,-88.8 440.62,-88.8 437.62,-84.8 375.38,-84.8 375.38,-48.8 464.62,-48.8 464.62,-84.8"/>
<text text-anchor="middle" x="420" y="-62.6" font-family="Times,serif" font-size="14.00">PostsModule</text>
</g>
<!-- PostsModule&#45;&gt;ServicesModule -->
<g id="edge2" class="edge">
<title>PostsModule&#45;&gt;ServicesModule</title>
<path fill="none" stroke="black" d="M420,-84.82C420,-102.17 420,-125.8 420,-125.8 420,-125.8 367.59,-125.8 367.59,-125.8"/>
<polygon fill="black" stroke="black" points="367.59,-122.3 357.59,-125.8 367.59,-129.3 367.59,-122.3"/>
</g>
<!-- StoragesModule -->
<g id="node3" class="node">
<title>StoragesModule</title>
<polygon fill="#8dd3c7" stroke="black" points="357.77,-84.8 354.77,-88.8 333.77,-88.8 330.77,-84.8 250.23,-84.8 250.23,-48.8 357.77,-48.8 357.77,-84.8"/>
<text text-anchor="middle" x="304" y="-62.6" font-family="Times,serif" font-size="14.00">StoragesModule</text>
</g>
<!-- StoragesModule&#45;&gt;ServicesModule -->
<g id="edge3" class="edge">
<title>StoragesModule&#45;&gt;ServicesModule</title>
<path fill="none" stroke="black" d="M304,-84.91C304,-84.91 304,-103.79 304,-103.79"/>
<polygon fill="black" stroke="black" points="300.5,-103.79 304,-113.79 307.5,-103.79 300.5,-103.79"/>
</g>
<!-- TopicsModule -->
<g id="node4" class="node">
<title>TopicsModule</title>
<polygon fill="#8dd3c7" stroke="black" points="231.66,-84.8 228.66,-88.8 207.66,-88.8 204.66,-84.8 134.34,-84.8 134.34,-48.8 231.66,-48.8 231.66,-84.8"/>
<text text-anchor="middle" x="183" y="-62.6" font-family="Times,serif" font-size="14.00">TopicsModule</text>
</g>
<!-- TopicsModule&#45;&gt;ServicesModule -->
<g id="edge4" class="edge">
<title>TopicsModule&#45;&gt;ServicesModule</title>
<path fill="none" stroke="black" d="M183,-84.82C183,-102.17 183,-125.8 183,-125.8 183,-125.8 240.22,-125.8 240.22,-125.8"/>
<polygon fill="black" stroke="black" points="240.22,-129.3 250.22,-125.8 240.22,-122.3 240.22,-129.3"/>
</g>
<!-- UsersModule -->
<g id="node5" class="node">
<title>UsersModule</title>
<polygon fill="#8dd3c7" stroke="black" points="115.94,-84.8 112.94,-88.8 91.94,-88.8 88.94,-84.8 24.06,-84.8 24.06,-48.8 115.94,-48.8 115.94,-84.8"/>
<text text-anchor="middle" x="70" y="-62.6" font-family="Times,serif" font-size="14.00">UsersModule</text>
</g>
<!-- UsersModule&#45;&gt;ServicesModule -->
<g id="edge5" class="edge">
<title>UsersModule&#45;&gt;ServicesModule</title>
<path fill="none" stroke="black" d="M70,-85.08C70,-106.12 70,-137.8 70,-137.8 70,-137.8 240.32,-137.8 240.32,-137.8"/>
<polygon fill="black" stroke="black" points="240.32,-141.3 250.32,-137.8 240.32,-134.3 240.32,-141.3"/>
</g>
</g>
</svg>
