<?xml version="1.0" encoding="UTF-8" standalone="no"?>
<!DOCTYPE svg PUBLIC "-//W3C//DTD SVG 1.1//EN"
 "http://www.w3.org/Graphics/SVG/1.1/DTD/svg11.dtd">
<!-- Generated by graphviz version 5.0.0 (20220707.1540)
 -->
<!-- Title: dependencies Pages: 1 -->
<svg width="1453pt" height="247pt"
 viewBox="0.00 0.00 1453.00 246.80" xmlns="http://www.w3.org/2000/svg" xmlns:xlink="http://www.w3.org/1999/xlink">
<g id="graph0" class="graph" transform="scale(1 1) rotate(0) translate(4 242.8)">
<title>dependencies</title>
<polygon fill="white" stroke="transparent" points="-4,4 -4,-242.8 1449,-242.8 1449,4 -4,4"/>
<text text-anchor="middle" x="722.5" y="-8.2" font-family="sans-serif" font-size="14.00">dependencies</text>
<g id="clust1" class="cluster">
<title>cluster_UsersModule</title>
<polygon fill="none" stroke="black" stroke-dasharray="1,5" points="8,-32.8 8,-230.8 1437,-230.8 1437,-32.8 8,-32.8"/>
</g>
<g id="clust3" class="cluster">
<title>cluster_UsersModule_imports</title>
<polygon fill="none" stroke="black" points="1305,-40.8 1305,-92.8 1429,-92.8 1429,-40.8 1305,-40.8"/>
</g>
<g id="clust4" class="cluster">
<title>cluster_UsersModule_exports</title>
<polygon fill="none" stroke="black" points="616,-170.8 616,-222.8 726,-222.8 726,-170.8 616,-170.8"/>
</g>
<g id="clust6" class="cluster">
<title>cluster_UsersModule_providers</title>
<polygon fill="none" stroke="black" points="16,-40.8 16,-92.8 1297,-92.8 1297,-40.8 16,-40.8"/>
</g>
<!-- StoragesModule -->
<g id="node1" class="node">
<title>StoragesModule</title>
<polygon fill="#8dd3c7" stroke="black" points="1420.77,-84.8 1417.77,-88.8 1396.77,-88.8 1393.77,-84.8 1313.23,-84.8 1313.23,-48.8 1420.77,-48.8 1420.77,-84.8"/>
<text text-anchor="middle" x="1367" y="-62.6" font-family="Times,serif" font-size="14.00">StoragesModule</text>
</g>
<!-- UsersModule -->
<g id="node2" class="node">
<title>UsersModule</title>
<polygon fill="#8dd3c7" stroke="black" points="716.94,-149.8 713.94,-153.8 692.94,-153.8 689.94,-149.8 625.06,-149.8 625.06,-113.8 716.94,-113.8 716.94,-149.8"/>
<text text-anchor="middle" x="671" y="-127.6" font-family="Times,serif" font-size="14.00">UsersModule</text>
</g>
<!-- StoragesModule&#45;&gt;UsersModule -->
<g id="edge1" class="edge">
<title>StoragesModule&#45;&gt;UsersModule</title>
<path fill="none" stroke="black" d="M1367,-85.09C1367,-107.01 1367,-140.8 1367,-140.8 1367,-140.8 726.94,-140.8 726.94,-140.8"/>
<polygon fill="black" stroke="black" points="726.94,-137.3 716.94,-140.8 726.94,-144.3 726.94,-137.3"/>
</g>
<!-- UsersService  -->
<g id="node3" class="node">
<title>UsersService </title>
<polygon fill="#fb8072" stroke="black" points="717.86,-214.8 624.14,-214.8 624.14,-178.8 717.86,-178.8 717.86,-214.8"/>
<text text-anchor="middle" x="671" y="-192.6" font-family="Times,serif" font-size="14.00">UsersService </text>
</g>
<!-- UsersModule&#45;&gt;UsersService  -->
<g id="edge2" class="edge">
<title>UsersModule&#45;&gt;UsersService </title>
<path fill="none" stroke="black" stroke-dasharray="5,2" d="M671,-149.91C671,-149.91 671,-168.79 671,-168.79"/>
<polygon fill="black" stroke="black" points="667.5,-168.79 671,-178.79 674.5,-168.79 667.5,-168.79"/>
</g>
<!-- IsEmailUniqueValidator -->
<g id="node4" class="node">
<title>IsEmailUniqueValidator</title>
<ellipse fill="#fdb462" stroke="black" cx="1183" cy="-66.8" rx="105.94" ry="18"/>
<text text-anchor="middle" x="1183" y="-62.6" font-family="Times,serif" font-size="14.00">IsEmailUniqueValidator</text>
</g>
<!-- IsEmailUniqueValidator&#45;&gt;UsersModule -->
<g id="edge3" class="edge">
<title>IsEmailUniqueValidator&#45;&gt;UsersModule</title>
<path fill="none" stroke="black" d="M1183,-84.91C1183,-104.14 1183,-131.8 1183,-131.8 1183,-131.8 726.89,-131.8 726.89,-131.8"/>
<polygon fill="black" stroke="black" points="726.89,-128.3 716.89,-131.8 726.89,-135.3 726.89,-128.3"/>
</g>
<!-- IsPhoneNumberUniqueValidator -->
<g id="node5" class="node">
<title>IsPhoneNumberUniqueValidator</title>
<ellipse fill="#fdb462" stroke="black" cx="920" cy="-66.8" rx="138.89" ry="18"/>
<text text-anchor="middle" x="920" y="-62.6" font-family="Times,serif" font-size="14.00">IsPhoneNumberUniqueValidator</text>
</g>
<!-- IsPhoneNumberUniqueValidator&#45;&gt;UsersModule -->
<g id="edge4" class="edge">
<title>IsPhoneNumberUniqueValidator&#45;&gt;UsersModule</title>
<path fill="none" stroke="black" d="M920,-84.83C920,-101.2 920,-122.8 920,-122.8 920,-122.8 726.96,-122.8 726.96,-122.8"/>
<polygon fill="black" stroke="black" points="726.96,-119.3 716.96,-122.8 726.96,-126.3 726.96,-119.3"/>
</g>
<!-- IsUserExistValidator -->
<g id="node6" class="node">
<title>IsUserExistValidator</title>
<ellipse fill="#fdb462" stroke="black" cx="671" cy="-66.8" rx="92.63" ry="18"/>
<text text-anchor="middle" x="671" y="-62.6" font-family="Times,serif" font-size="14.00">IsUserExistValidator</text>
</g>
<!-- IsUserExistValidator&#45;&gt;UsersModule -->
<g id="edge5" class="edge">
<title>IsUserExistValidator&#45;&gt;UsersModule</title>
<path fill="none" stroke="black" d="M671,-84.91C671,-84.91 671,-103.79 671,-103.79"/>
<polygon fill="black" stroke="black" points="667.5,-103.79 671,-113.79 674.5,-103.79 667.5,-103.79"/>
</g>
<!-- IsUsernameUniqueValidator -->
<g id="node7" class="node">
<title>IsUsernameUniqueValidator</title>
<ellipse fill="#fdb462" stroke="black" cx="438" cy="-66.8" rx="122.11" ry="18"/>
<text text-anchor="middle" x="438" y="-62.6" font-family="Times,serif" font-size="14.00">IsUsernameUniqueValidator</text>
</g>
<!-- IsUsernameUniqueValidator&#45;&gt;UsersModule -->
<g id="edge6" class="edge">
<title>IsUsernameUniqueValidator&#45;&gt;UsersModule</title>
<path fill="none" stroke="black" d="M438,-84.83C438,-101.2 438,-122.8 438,-122.8 438,-122.8 615.24,-122.8 615.24,-122.8"/>
<polygon fill="black" stroke="black" points="615.24,-126.3 625.24,-122.8 615.24,-119.3 615.24,-126.3"/>
</g>
<!-- UserByIdPipe -->
<g id="node8" class="node">
<title>UserByIdPipe</title>
<ellipse fill="#fdb462" stroke="black" cx="232" cy="-66.8" rx="65.51" ry="18"/>
<text text-anchor="middle" x="232" y="-62.6" font-family="Times,serif" font-size="14.00">UserByIdPipe</text>
</g>
<!-- UserByIdPipe&#45;&gt;UsersModule -->
<g id="edge7" class="edge">
<title>UserByIdPipe&#45;&gt;UsersModule</title>
<path fill="none" stroke="black" d="M232,-84.91C232,-104.14 232,-131.8 232,-131.8 232,-131.8 615.26,-131.8 615.26,-131.8"/>
<polygon fill="black" stroke="black" points="615.26,-135.3 625.26,-131.8 615.26,-128.3 615.26,-135.3"/>
</g>
<!-- UsersService -->
<g id="node9" class="node">
<title>UsersService</title>
<ellipse fill="#fdb462" stroke="black" cx="86" cy="-66.8" rx="61.97" ry="18"/>
<text text-anchor="middle" x="86" y="-62.6" font-family="Times,serif" font-size="14.00">UsersService</text>
</g>
<!-- UsersService&#45;&gt;UsersModule -->
<g id="edge8" class="edge">
<title>UsersService&#45;&gt;UsersModule</title>
<path fill="none" stroke="black" d="M86,-85.09C86,-107.01 86,-140.8 86,-140.8 86,-140.8 615.1,-140.8 615.1,-140.8"/>
<polygon fill="black" stroke="black" points="615.1,-144.3 625.1,-140.8 615.1,-137.3 615.1,-144.3"/>
</g>
</g>
</svg>
