<?xml version="1.0" encoding="UTF-8" standalone="no"?>
<!DOCTYPE svg PUBLIC "-//W3C//DTD SVG 1.1//EN"
 "http://www.w3.org/Graphics/SVG/1.1/DTD/svg11.dtd">
<!-- Generated by graphviz version 5.0.0 (20220707.1540)
 -->
<!-- Title: dependencies Pages: 1 -->
<svg width="788pt" height="247pt"
 viewBox="0.00 0.00 788.00 246.80" xmlns="http://www.w3.org/2000/svg" xmlns:xlink="http://www.w3.org/1999/xlink">
<g id="graph0" class="graph" transform="scale(1 1) rotate(0) translate(4 242.8)">
<title>dependencies</title>
<polygon fill="white" stroke="transparent" points="-4,4 -4,-242.8 784,-242.8 784,4 -4,4"/>
<text text-anchor="middle" x="390" y="-8.2" font-family="sans-serif" font-size="14.00">dependencies</text>
<g id="clust1" class="cluster">
<title>cluster_TopicsModule</title>
<polygon fill="none" stroke="black" stroke-dasharray="1,5" points="8,-32.8 8,-230.8 772,-230.8 772,-32.8 8,-32.8"/>
</g>
<g id="clust4" class="cluster">
<title>cluster_TopicsModule_exports</title>
<polygon fill="none" stroke="black" points="278,-170.8 278,-222.8 394,-222.8 394,-170.8 278,-170.8"/>
</g>
<g id="clust6" class="cluster">
<title>cluster_TopicsModule_providers</title>
<polygon fill="none" stroke="black" points="16,-40.8 16,-92.8 764,-92.8 764,-40.8 16,-40.8"/>
</g>
<!-- TopicsService  -->
<g id="node1" class="node">
<title>TopicsService </title>
<polygon fill="#fb8072" stroke="black" points="385.58,-214.8 286.42,-214.8 286.42,-178.8 385.58,-178.8 385.58,-214.8"/>
<text text-anchor="middle" x="336" y="-192.6" font-family="Times,serif" font-size="14.00">TopicsService </text>
</g>
<!-- TopicsModule -->
<g id="node2" class="node">
<title>TopicsModule</title>
<polygon fill="#8dd3c7" stroke="black" points="384.66,-149.8 381.66,-153.8 360.66,-153.8 357.66,-149.8 287.34,-149.8 287.34,-113.8 384.66,-113.8 384.66,-149.8"/>
<text text-anchor="middle" x="336" y="-127.6" font-family="Times,serif" font-size="14.00">TopicsModule</text>
</g>
<!-- TopicsModule&#45;&gt;TopicsService  -->
<g id="edge1" class="edge">
<title>TopicsModule&#45;&gt;TopicsService </title>
<path fill="none" stroke="black" stroke-dasharray="5,2" d="M336,-149.91C336,-149.91 336,-168.79 336,-168.79"/>
<polygon fill="black" stroke="black" points="332.5,-168.79 336,-178.79 339.5,-168.79 332.5,-168.79"/>
</g>
<!-- IsNameUniqueValidator -->
<g id="node3" class="node">
<title>IsNameUniqueValidator</title>
<ellipse fill="#fdb462" stroke="black" cx="650" cy="-66.8" rx="105.93" ry="18"/>
<text text-anchor="middle" x="650" y="-62.6" font-family="Times,serif" font-size="14.00">IsNameUniqueValidator</text>
</g>
<!-- IsNameUniqueValidator&#45;&gt;TopicsModule -->
<g id="edge2" class="edge">
<title>IsNameUniqueValidator&#45;&gt;TopicsModule</title>
<path fill="none" stroke="black" d="M650,-84.91C650,-104.14 650,-131.8 650,-131.8 650,-131.8 394.72,-131.8 394.72,-131.8"/>
<polygon fill="black" stroke="black" points="394.72,-128.3 384.72,-131.8 394.72,-135.3 394.72,-128.3"/>
</g>
<!-- IsTopicExistValidator -->
<g id="node4" class="node">
<title>IsTopicExistValidator</title>
<ellipse fill="#fdb462" stroke="black" cx="429" cy="-66.8" rx="96.71" ry="18"/>
<text text-anchor="middle" x="429" y="-62.6" font-family="Times,serif" font-size="14.00">IsTopicExistValidator</text>
</g>
<!-- IsTopicExistValidator&#45;&gt;TopicsModule -->
<g id="edge3" class="edge">
<title>IsTopicExistValidator&#45;&gt;TopicsModule</title>
<path fill="none" stroke="black" d="M358.49,-79.33C358.49,-79.33 358.49,-103.65 358.49,-103.65"/>
<polygon fill="black" stroke="black" points="354.99,-103.65 358.49,-113.65 361.99,-103.65 354.99,-103.65"/>
</g>
<!-- TopicByIdPipe -->
<g id="node5" class="node">
<title>TopicByIdPipe</title>
<ellipse fill="#fdb462" stroke="black" cx="244" cy="-66.8" rx="70.09" ry="18"/>
<text text-anchor="middle" x="244" y="-62.6" font-family="Times,serif" font-size="14.00">TopicByIdPipe</text>
</g>
<!-- TopicByIdPipe&#45;&gt;TopicsModule -->
<g id="edge4" class="edge">
<title>TopicByIdPipe&#45;&gt;TopicsModule</title>
<path fill="none" stroke="black" d="M300.61,-77.53C300.61,-77.53 300.61,-103.67 300.61,-103.67"/>
<polygon fill="black" stroke="black" points="297.11,-103.67 300.61,-113.67 304.11,-103.67 297.11,-103.67"/>
</g>
<!-- TopicsService -->
<g id="node6" class="node">
<title>TopicsService</title>
<ellipse fill="#fdb462" stroke="black" cx="90" cy="-66.8" rx="66.05" ry="18"/>
<text text-anchor="middle" x="90" y="-62.6" font-family="Times,serif" font-size="14.00">TopicsService</text>
</g>
<!-- TopicsService&#45;&gt;TopicsModule -->
<g id="edge5" class="edge">
<title>TopicsService&#45;&gt;TopicsModule</title>
<path fill="none" stroke="black" d="M90,-84.91C90,-104.14 90,-131.8 90,-131.8 90,-131.8 277.1,-131.8 277.1,-131.8"/>
<polygon fill="black" stroke="black" points="277.1,-135.3 287.1,-131.8 277.1,-128.3 277.1,-135.3"/>
</g>
</g>
</svg>
