<?xml version="1.0" encoding="UTF-8" standalone="no"?>
<!DOCTYPE svg PUBLIC "-//W3C//DTD SVG 1.1//EN"
 "http://www.w3.org/Graphics/SVG/1.1/DTD/svg11.dtd">
<!-- Generated by graphviz version 5.0.0 (20220707.1540)
 -->
<!-- Title: dependencies Pages: 1 -->
<svg width="443pt" height="247pt"
 viewBox="0.00 0.00 443.00 246.80" xmlns="http://www.w3.org/2000/svg" xmlns:xlink="http://www.w3.org/1999/xlink">
<g id="graph0" class="graph" transform="scale(1 1) rotate(0) translate(4 242.8)">
<title>dependencies</title>
<polygon fill="white" stroke="transparent" points="-4,4 -4,-242.8 439,-242.8 439,4 -4,4"/>
<text text-anchor="middle" x="217.5" y="-8.2" font-family="sans-serif" font-size="14.00">dependencies</text>
<g id="clust1" class="cluster">
<title>cluster_StoragesModule</title>
<polygon fill="none" stroke="black" stroke-dasharray="1,5" points="8,-32.8 8,-230.8 427,-230.8 427,-32.8 8,-32.8"/>
</g>
<g id="clust4" class="cluster">
<title>cluster_StoragesModule_exports</title>
<polygon fill="none" stroke="black" points="135,-170.8 135,-222.8 261,-222.8 261,-170.8 135,-170.8"/>
</g>
<g id="clust6" class="cluster">
<title>cluster_StoragesModule_providers</title>
<polygon fill="none" stroke="black" points="16,-40.8 16,-92.8 419,-92.8 419,-40.8 16,-40.8"/>
</g>
<!-- StoragesService  -->
<g id="node1" class="node">
<title>StoragesService </title>
<polygon fill="#fb8072" stroke="black" points="252.69,-214.8 143.31,-214.8 143.31,-178.8 252.69,-178.8 252.69,-214.8"/>
<text text-anchor="middle" x="198" y="-192.6" font-family="Times,serif" font-size="14.00">StoragesService </text>
</g>
<!-- StoragesModule -->
<g id="node2" class="node">
<title>StoragesModule</title>
<polygon fill="#8dd3c7" stroke="black" points="251.77,-149.8 248.77,-153.8 227.77,-153.8 224.77,-149.8 144.23,-149.8 144.23,-113.8 251.77,-113.8 251.77,-149.8"/>
<text text-anchor="middle" x="198" y="-127.6" font-family="Times,serif" font-size="14.00">StoragesModule</text>
</g>
<!-- StoragesModule&#45;&gt;StoragesService  -->
<g id="edge1" class="edge">
<title>StoragesModule&#45;&gt;StoragesService </title>
<path fill="none" stroke="black" stroke-dasharray="5,2" d="M198,-149.91C198,-149.91 198,-168.79 198,-168.79"/>
<polygon fill="black" stroke="black" points="194.5,-168.79 198,-178.79 201.5,-168.79 194.5,-168.79"/>
</g>
<!-- IsLocalFileExistValidator -->
<g id="node3" class="node">
<title>IsLocalFileExistValidator</title>
<ellipse fill="#fdb462" stroke="black" cx="300" cy="-66.8" rx="111.17" ry="18"/>
<text text-anchor="middle" x="300" y="-62.6" font-family="Times,serif" font-size="14.00">IsLocalFileExistValidator</text>
</g>
<!-- IsLocalFileExistValidator&#45;&gt;StoragesModule -->
<g id="edge2" class="edge">
<title>IsLocalFileExistValidator&#45;&gt;StoragesModule</title>
<path fill="none" stroke="black" d="M220.27,-79.64C220.27,-79.64 220.27,-103.32 220.27,-103.32"/>
<polygon fill="black" stroke="black" points="216.77,-103.32 220.27,-113.32 223.77,-103.32 216.77,-103.32"/>
</g>
<!-- StoragesService -->
<g id="node4" class="node">
<title>StoragesService</title>
<ellipse fill="#fdb462" stroke="black" cx="97" cy="-66.8" rx="73" ry="18"/>
<text text-anchor="middle" x="97" y="-62.6" font-family="Times,serif" font-size="14.00">StoragesService</text>
</g>
<!-- StoragesService&#45;&gt;StoragesModule -->
<g id="edge3" class="edge">
<title>StoragesService&#45;&gt;StoragesModule</title>
<path fill="none" stroke="black" d="M157.18,-77.24C157.18,-77.24 157.18,-103.77 157.18,-103.77"/>
<polygon fill="black" stroke="black" points="153.68,-103.77 157.18,-113.77 160.68,-103.77 153.68,-103.77"/>
</g>
</g>
</svg>
